<svg t="1620613037555" class="icon" viewBox="0 0 1024 1024" version="1.1" xmlns="http://www.w3.org/2000/svg" p-id="1885" width="16" height="16"><path d="M511.77244445 35.04355555c-263.50933333 0-477.86666667 214.35733333-477.86666667 477.86666667s214.35733333 477.86666667 477.86666667 477.86666667 477.86666667-214.35733333 477.86666666-477.86666667-214.35733333-477.86666667-477.86666666-477.86666667z m0 876.0888889c-219.59111111 0-398.22222222-178.63111111-398.22222223-398.22222223s178.63111111-398.22222222 398.22222223-398.22222222 398.22222222 178.63111111 398.22222222 398.22222222-178.63111111 398.22222222-398.22222222 398.22222223z" p-id="1886"></path><path d="M710.88355555 473.088h-159.28888888v-159.28888889c0-21.84533333-17.86311111-39.82222222-39.82222222-39.82222222-21.84533333 0-39.82222222 17.97688889-39.82222223 39.82222222v159.28888889h-159.28888889c-21.84533333 0-39.82222222 17.97688889-39.82222222 39.82222222s17.97688889 39.82222222 39.82222222 39.82222223h159.28888889v159.28888888c0 21.84533333 17.97688889 39.82222222 39.82222223 39.82222222 21.95911111 0 39.82222222-17.97688889 39.82222222-39.82222222v-159.28888888h159.28888888c21.95911111 0 39.82222222-17.97688889 39.82222223-39.82222223s-17.86311111-39.82222222-39.82222223-39.82222222z" p-id="1887"></path></svg>