<?xml version="1.0" standalone="no"?><!DOCTYPE svg PUBLIC "-//W3C//DTD SVG 1.1//EN" "http://www.w3.org/Graphics/SVG/1.1/DTD/svg11.dtd"><svg t="1620485589621" class="icon" viewBox="0 0 1024 1024" version="1.1" xmlns="http://www.w3.org/2000/svg" p-id="1758" xmlns:xlink="http://www.w3.org/1999/xlink" width="128" height="128"><defs><style type="text/css"></style></defs><path d="M514.375 1018.449l-20.908-8.632c-3.914-1.612-97.355-40.558-191.656-118.413-56.345-46.521-101.479-97.462-134.149-151.407-42.119-69.562-63.475-143.929-63.475-221.037L104.187 97.3l54.848 0c0.676 0 69.669-0.167 145.265-8.867 129.907-14.957 163.517-40.376 170.723-47.811L514.374 0l39.364 40.626c7.218 7.449 40.903 32.919 171.209 47.861 75.525 8.658 144.101 8.812 144.785 8.812l54.837 0 0 421.66c0 77.115-21.358 151.482-63.48 221.037-32.676 53.956-77.811 104.896-134.151 151.408-94.32 77.877-187.74 116.802-191.671 118.421L514.375 1018.449zM155.861 147.3l0 371.66c0 68.105 18.971 133.969 56.385 195.76 29.744 49.114 71.163 95.763 123.106 138.649 88.35 72.942 174.741 108.955 178.376 110.452l0.65 0.269 0.634-0.262c3.651-1.504 90.016-37.495 178.386-110.459 51.938-42.878 93.357-89.526 123.108-138.651 37.417-61.784 56.389-127.647 56.389-195.758L872.895 147.3l-3.173 0c-0.71 0-71.872-0.104-150.856-9.16-105.607-12.109-173.846-33.412-202.825-63.315l-1.663-1.717-1.66 1.713c-28.939 29.854-97.006 51.137-202.315 63.261-79.167 9.112-150.656 9.217-151.369 9.217L155.861 147.299z" p-id="1759"></path><path d="M375.2 392.288c0 8.537-0.337 18.137-1 28.8-0.669 10.669-1.669 22.269-3 34.8-1.337 13.069-2.669 25-4 35.8-1.337 10.8-2.938 20.337-4.8 28.6l0-0.4c-1.337 8.269-2.668 15.068-4 20.4-1.337 5.337-2.537 9.199-3.6 11.6-1.338 2.938-3.069 5.269-5.2 7-2.138 1.737-4.669 2.6-7.6 2.6-10.137 0-15.2-4.8-15.2-14.399 0-2.932 0.662-7.331 2-13.2 10.4-39.462 15.6-85.731 15.6-138.8 0-8.263 1.131-13.8 3.4-16.6 2.262-2.8 6.862-4.2 13.8-4.2C370.663 374.288 375.2 380.288 375.2 392.288zM415.2 665.488c0 9.6-5.2 14.399-15.6 14.399-10.138 0-15.2-4.8-15.2-14.399L384.4 313.888c0-9.6 5.062-14.4 15.2-14.4 10.4 0 15.6 4.8 15.6 14.4L415.2 665.488zM433.2 370.688c5.331 0 9.2 2.269 11.6 6.8 2.131 2.938 4.4 11.069 6.8 24.4 1.331 6.4 2.531 13.469 3.6 21.2 1.062 7.737 2.262 15.869 3.6 24.4 2.4 17.337 3.6 30 3.6 38 0 8.269-2.137 13.738-6.4 16.4l80 0c2.662-14.131 4.6-29.2 5.8-45.2s1.932-33.731 2.2-53.2l-66.4 0c-5.337 0-8.869-0.8-10.6-2.4-1.737-1.6-2.6-5.731-2.6-12.4 0-6.663 1-10.8 3-12.4 2-1.6 5.4-2.4 10.2-2.4L544 373.888c0-9.331-0.138-18.4-0.4-27.2-0.269-8.8-0.399-17.863-0.399-27.2 0-7.731 1.199-13.062 3.6-16 2.399-2.931 6.532-4.4 12.399-4.4 6.133 0 10.201 1.269 12.201 3.8 2 2.538 3 8.069 3 16.6l0 54.4L633.6 373.888c16 0 26.4 2.669 31.201 8 4.531 4.8 6.799 13.6 6.799 26.4l0 93.6 19.6 0c9.863 0 14.801 4.4 14.801 13.2 0 5.868-1.068 10-3.199 12.399-2.139 2.669-6 4-11.602 4L589.6 531.487c6.131 11.469 12.732 22.669 19.801 33.601 7.062 10.938 14.062 20.669 21 29.2 15.199 18.931 35.73 36.931 61.6 54 6.131 4.531 9.73 9.131 10.801 13.8 1.062 4.662 0.531 8.731-1.602 12.2-2.137 3.731-5.537 6.062-10.199 7-4.668 0.931-9.668-0.338-15-3.8-1.6-1.069-3.068-2.069-4.4-3-1.338-0.938-2.736-1.938-4.199-3-1.469-1.069-3.201-2.4-5.201-4-2-1.601-4.6-3.601-7.799-6-5.338-4.538-11-9.738-17-15.601-6-5.868-12.201-12.269-18.6-19.2-10.938-12.269-21.201-25.8-30.801-40.6s-19.068-31.663-28.4-50.601c-5.869 20.801-13.537 39.869-23 57.2-9.469 17.338-21 32.801-34.6 46.4-28.8 29.6-48.8 44.4-60 44.4-1.869-0.27-4.469-1.2-7.8-2.801-3.337-1.6-5.8-3.737-7.4-6.399-1.6-2.669-1.538-5.938 0.2-9.8 1.731-3.869 6.731-8.469 15-13.801l-0.4 0c24-17.337 42.862-35.6 56.6-54.8 13.731-19.2 24.062-40.662 31-64.4l-74.4 0c-9.069 0-13.6-4.931-13.6-14.8 0-6.399 2-10.8 6-13.2-4.8-0.531-8.669-2.8-11.6-6.8-2.138-4-3.337-9.6-3.6-16.8-2.137-31.2-6.137-59.6-12-85.2l0.4 0c-1.068-4-1.6-7.062-1.6-9.2C418.8 375.625 423.6 370.688 433.2 370.688zM574 403.488c-0.27 19.2-1 37-2.199 53.4-1.201 16.4-3 31.4-5.4 45L642 501.888l0-93.6c0-3.2-2.801-4.8-8.4-4.8L574 403.488z" p-id="1760"></path></svg>