<svg t="1620633352474" class="icon" viewBox="0 0 1024 1024" version="1.1" xmlns="http://www.w3.org/2000/svg" p-id="3675" width="16" height="16"><path d="M876.45696 483.99872l-252.34432-252.35456 84.11648-84.11136a39.65952 39.65952 0 0 0 0-56.07424L652.14976 35.38432c-46.48448-46.4896-121.74336-46.49984-168.22784 0L147.456 371.84512c-46.38208 46.38208-46.38208 121.85088 0 168.23296l252.34944 252.34944-84.1216 84.1216a39.6544 39.6544 0 0 0 0 56.06912l56.07936 56.07936c46.38208 46.38208 121.856 46.39232 168.23296 0l336.4608-336.4608c46.49472-46.48448 46.49984-121.73824 0-168.23808z m-336.4608-392.53504a39.6288 39.6288 0 0 1 56.07936 0l28.03712 28.032-280.38656 280.39168-28.03712-28.03712a119.01952 119.01952 0 0 0-32.80384-23.2704l257.11104-257.11616zM483.92704 932.61824c-15.4624 15.4624-40.6272 15.4624-56.08448 0.01024l-28.032-28.04224 56.06912-56.07936 28.04736 28.04224c15.4624 15.4624 15.4624 40.61184 0 56.06912z m336.45568-336.45568l-257.17248 257.1776a118.4 118.4 0 0 0-23.21408-32.8704C481.28 761.74848 289.72544 570.20928 203.53024 483.99872a39.64416 39.64416 0 0 1 0-56.07424 39.6288 39.6288 0 0 1 56.07424 0l56.08448 56.07424a39.64416 39.64416 0 0 0 56.07936 0l196.25984-196.26496 252.35456 252.35968a39.60832 39.60832 0 0 1 0 56.06912z" p-id="3676"></path></svg>